<svg  viewBox="0 0 800 800" fill="none" xmlns="http://www.w3.org/2000/svg">
<path d="M700 633.333H100C91.1595 633.333 82.681 629.821 76.4298 623.57C70.1786 617.319 66.6667 608.841 66.6667 600C66.6667 591.159 70.1786 582.681 76.4298 576.43C82.681 570.179 91.1595 566.667 100 566.667H700C708.841 566.667 717.319 570.179 723.57 576.43C729.821 582.681 733.333 591.159 733.333 600C733.333 608.841 729.821 617.319 723.57 623.57C717.319 629.821 708.841 633.333 700 633.333Z" fill="white"/>
<path d="M700 433.333H100C91.1595 433.333 82.681 429.821 76.4298 423.57C70.1786 417.319 66.6667 408.841 66.6667 400C66.6667 391.159 70.1786 382.681 76.4298 376.43C82.681 370.179 91.1595 366.667 100 366.667H700C708.841 366.667 717.319 370.179 723.57 376.43C729.821 382.681 733.333 391.159 733.333 400C733.333 408.841 729.821 417.319 723.57 423.57C717.319 429.821 708.841 433.333 700 433.333Z" fill="white"/>
<path d="M700 233.333H100C91.1595 233.333 82.681 229.821 76.4298 223.57C70.1786 217.319 66.6667 208.841 66.6667 200C66.6667 191.159 70.1786 182.681 76.4298 176.43C82.681 170.179 91.1595 166.667 100 166.667H700C708.841 166.667 717.319 170.179 723.57 176.43C729.821 182.681 733.333 191.159 733.333 200C733.333 208.841 729.821 217.319 723.57 223.57C717.319 229.821 708.841 233.333 700 233.333Z" fill="white"/>
</svg>
